Coordinates
version=1
nRows=19
nColumns=63
inDegrees=yes

Units are S.I. units (second, meters, Newtons, ...)
If the header above contains a line with 'inDegrees', this indicates whether rotational values are in degrees (yes) or radians (no).

endheader
time	pelvis_tilt	pelvis_list	pelvis_rotation	pelvis_tx	pelvis_ty	pelvis_tz	hip_flexion_r	hip_adduction_r	hip_rotation_r	knee_angle_r	knee_angle_r_beta	ankle_angle_r	subtalar_angle_r	mtp_angle_r	hip_flexion_l	hip_adduction_l	hip_rotation_l	knee_angle_l	knee_angle_l_beta	ankle_angle_l	subtalar_angle_l	mtp_angle_l	L5_S1_Flex_Ext	L5_S1_Lat_Bending	L5_S1_axial_rotation	L4_L5_Flex_Ext	L4_L5_Lat_Bending	L4_L5_axial_rotation	L3_L4_Flex_Ext	L3_L4_Lat_Bending	L3_L4_axial_rotation	L2_L3_Flex_Ext	L2_L3_Lat_Bending	L2_L3_axial_rotation	L1_L2_Flex_Ext	L1_L2_Lat_Bending	L1_L2_axial_rotation	L1_T12_Flex_Ext	L1_T12_Lat_Bending	L1_T12_axial_rotation	Abs_r3	Abs_r2	Abs_r1	Abs_t1	Abs_t2	neck_flexion	neck_bending	neck_rotation	arm_flex_r	arm_add_r	arm_rot_r	elbow_flex_r	pro_sup_r	wrist_flex_r	wrist_dev_r	arm_flex_l	arm_add_l	arm_rot_l	elbow_flex_l	pro_sup_l	wrist_flex_l	wrist_dev_l
2.237288	-1.045213	-1.115736	92.467170	0.193977	0.557333	0.955094	-10.422365	0.557876	-11.322465	2.410879	0.042078	29.759249	8.383427	0.000000	-8.984415	-1.459800	14.124453	0.448486	0.007828	24.120079	-10.034603	0.000000	-0.289158	-1.598931	2.508273	-0.536995	-2.126579	2.665040	-0.475057	-3.887642	2.665040	-0.330478	-3.887642	2.194739	-0.268512	-3.260541	2.037972	-0.165225	-2.476745	1.881205	-2.065425	-18.087432	13.950263	0.000000	0.000000	1.533246	-15.087498	2.104635	32.629329	7.330403	37.880477	143.136028	70.547956	-24.732818	-1.826571	24.458286	-7.173784	20.904924	150.503119	89.213613	-19.536323	-21.161666
2.254237	-1.041456	-1.378569	92.616118	0.191925	0.556462	0.953736	-10.237161	0.444420	-12.446173	2.563710	0.044745	29.980563	9.462102	0.000000	-8.854178	-1.377206	14.458137	0.469211	0.008189	23.964652	-10.250169	0.000000	-0.238893	-1.518808	2.221498	-0.443648	-2.020015	2.360342	-0.392477	-3.692830	2.360342	-0.273031	-3.692830	1.943811	-0.221836	-3.097153	1.804967	-0.136503	-2.352634	1.666124	-1.706388	-17.181060	12.355307	0.000000	0.000000	2.581338	-14.409727	4.409518	31.419255	6.040219	38.604044	142.014752	65.036486	-21.994532	-2.718945	21.613123	-8.734380	20.396219	150.718491	89.129760	-18.620606	-20.190660
2.271186	-1.083234	-1.622978	92.850236	0.189758	0.555474	0.952377	-10.102692	0.309268	-13.511522	2.680044	0.046776	30.204612	10.295541	0.000000	-8.733545	-1.259256	15.092174	0.489267	0.008539	23.797629	-10.723885	0.000000	-0.184412	-1.443400	1.910551	-0.342472	-1.919723	2.029960	-0.302971	-3.509484	2.029960	-0.210765	-3.509484	1.671732	-0.171245	-2.943382	1.552323	-0.105373	-2.235827	1.432913	-1.317237	-16.328035	10.625912	0.000000	0.000000	3.699145	-13.688487	6.431349	30.089882	4.554866	39.107250	140.824217	59.780590	-18.329076	-2.715854	18.362750	-10.377124	19.676953	150.878077	88.831755	-17.584145	-18.624445
2.288136	-1.177327	-1.851852	93.145558	0.187554	0.554360	0.951145	-10.003941	0.138693	-14.600022	2.762047	0.048207	30.464813	11.044718	0.000000	-8.612728	-1.097269	15.743628	0.504307	0.008802	23.715687	-11.092637	0.000000	-0.128236	-1.374700	1.572387	-0.238148	-1.828351	1.670661	-0.210679	-3.342446	1.670661	-0.146561	-3.342446	1.375839	-0.119080	-2.803288	1.277564	-0.073274	-2.129410	1.179290	-0.915979	-15.550882	8.745144	0.000000	0.000000	4.970588	-12.860851	8.206722	28.688595	2.765807	39.711729	139.612297	54.686670	-14.351870	-2.072663	14.686625	-12.062873	18.696572	150.951145	88.138654	-16.521330	-16.434945
2.305085	-1.295069	-2.068253	93.529251	0.185284	0.553150	0.950170	-9.929963	-0.029904	-15.514638	2.795101	0.048784	30.706081	11.429085	0.000000	-8.473739	-0.920462	16.616569	0.516587	0.009016	23.669957	-11.614064	0.000000	-0.074239	-1.311367	1.225905	-0.137869	-1.744119	1.302524	-0.121967	-3.188459	1.302524	-0.084848	-3.188459	1.072667	-0.068938	-2.674141	0.996048	-0.042420	-2.031308	0.919429	-0.530282	-14.834451	6.818114	0.000000	0.000000	6.361260	-12.013155	9.456230	27.036109	0.597779	40.372810	138.320088	50.368993	-10.360754	-1.285425	10.754377	-13.744350	17.601116	150.735805	87.352805	-15.439096	-13.814686
2.322034	-1.423619	-2.282487	93.988075	0.182992	0.551908	0.949621	-9.850925	-0.190848	-16.267505	2.782290	0.048560	30.917363	11.492880	0.000000	-8.289501	-0.735344	17.602219	0.534962	0.009337	23.674365	-12.164879	0.000000	-0.024133	-1.252007	0.882031	-0.044818	-1.665169	0.937158	-0.039649	-3.044129	0.937158	-0.027582	-3.044129	0.771777	-0.022410	-2.553092	0.716650	-0.013790	-1.939358	0.661523	-0.172382	-14.162949	4.905590	0.000000	0.000000	7.873461	-11.160520	10.174366	25.107408	-1.973709	41.213063	136.768105	46.802759	-6.947427	-0.988512	6.738388	-15.389187	16.500949	150.027876	86.607725	-14.413026	-11.029669
2.338983	-1.552706	-2.499401	94.498955	0.180716	0.550683	0.949616	-9.745797	-0.339123	-16.819668	2.726495	0.047586	31.076586	11.217840	0.000000	-8.045072	-0.546857	18.651047	0.567512	0.009905	23.723385	-12.723318	0.000000	0.019885	-1.195990	0.557602	0.036929	-1.590667	0.592452	0.032670	-2.907931	0.592452	0.022727	-2.907931	0.487902	0.018466	-2.438863	0.453052	0.011363	-1.852589	0.418201	0.142040	-13.529281	3.101215	0.000000	0.000000	9.477132	-10.288849	10.315322	22.788739	-4.862778	41.787872	134.929258	43.984997	-3.644819	-0.525064	2.847292	-16.959010	15.513140	148.639068	85.951670	-13.375904	-8.244795
2.355932	-1.676444	-2.733110	95.047932	0.178487	0.549540	0.950295	-9.580865	-0.475817	-17.152172	2.639447	0.046067	31.160025	10.604566	0.000000	-7.712740	-0.353642	19.663511	0.625467	0.010916	23.817621	-13.195348	0.000000	0.056991	-1.143234	0.264002	0.105837	-1.520501	0.280502	0.093630	-2.779659	0.280502	0.065135	-2.779659	0.231001	0.052922	-2.331282	0.214501	0.032564	-1.770869	0.198001	0.407079	-12.932489	1.468297	0.000000	0.000000	11.145716	-9.407677	9.853877	20.114457	-7.936716	42.002484	132.693213	42.071186	-1.188865	0.160012	-0.687901	-18.418182	14.842626	146.396857	85.417534	-12.504857	-5.641965
2.372881	-1.799337	-2.995245	95.599936	0.176370	0.548534	0.951704	-9.337469	-0.609739	-17.212439	2.519138	0.043967	31.135199	9.621827	0.000000	-7.282324	-0.147312	20.545791	0.709054	0.012375	23.929762	-13.519810	0.000000	0.087757	-1.094843	0.008984	0.162973	-1.456141	0.009545	0.144175	-2.662001	0.009545	0.100297	-2.662001	0.007861	0.081491	-2.232604	0.007299	0.050144	-1.695912	0.006738	0.626837	-12.385082	0.049964	0.000000	0.000000	12.840995	-8.495834	8.821322	17.115156	-10.974297	41.635029	129.948072	41.558163	0.332552	1.273386	-3.718099	-19.723972	14.552588	143.196626	85.008718	-11.722059	-3.295969
2.389831	-1.899857	-3.293229	96.117353	0.174379	0.547678	0.953909	-8.985418	-0.729627	-17.113939	2.398903	0.041869	31.030760	8.475545	0.000000	-6.746930	0.054239	21.428345	0.813341	0.014195	23.977810	-13.961008	0.000000	0.111944	-1.046896	-0.204828	0.207891	-1.392371	-0.217630	0.183913	-2.545422	-0.217630	0.127941	-2.545422	-0.179224	0.103951	-2.134830	-0.166423	0.063965	-1.621641	-0.153621	0.799605	-11.842692	-1.139191	0.000000	0.000000	14.541093	-7.621333	7.308832	13.931837	-13.789419	40.634019	126.584942	42.023793	0.932109	2.489515	-6.126435	-20.818507	14.719518	139.006819	84.739798	-11.198980	-1.241260
2.406780	-1.974867	-3.639123	96.562058	0.172559	0.546995	0.956930	-8.493559	-0.842662	-16.917045	2.313377	0.040376	30.866296	7.291900	0.000000	-6.095387	0.249956	22.162075	0.938899	0.016387	23.976427	-14.360109	0.000000	0.129155	-0.998502	-0.373850	0.239854	-1.328008	-0.397216	0.212189	-2.427758	-0.397216	0.147611	-2.427758	-0.327119	0.119933	-2.036145	-0.303753	0.073799	-1.546680	-0.280387	0.922541	-11.295254	-2.079241	0.000000	0.000000	16.223422	-6.810408	5.375430	10.693467	-16.239985	39.039698	122.525259	42.758552	0.976782	3.408024	-7.837438	-21.653968	15.291191	133.876988	84.608240	-10.869421	0.593908
2.423729	-2.022462	-4.047562	96.916660	0.170923	0.546481	0.960725	-7.844977	-0.946468	-16.506500	2.269232	0.039606	30.615579	5.934083	0.000000	-5.313927	0.439449	22.693108	1.091895	0.019057	23.924458	-14.667065	0.000000	0.139737	-0.948305	-0.497370	0.259506	-1.261246	-0.528456	0.229574	-2.305710	-0.528456	0.159706	-2.305710	-0.435199	0.129760	-1.933784	-0.404113	0.079846	-1.468925	-0.373028	0.998128	-10.727421	-2.766224	0.000000	0.000000	17.877051	-6.078265	3.184320	7.487217	-18.202063	36.809753	117.798592	44.421774	0.522082	4.425223	-8.810229	-22.199100	16.189120	127.920600	84.615485	-10.645779	2.298273
2.440678	-2.030148	-4.522641	97.148768	0.169501	0.546123	0.965184	-7.046979	-1.012862	-15.623253	2.237411	0.039050	30.228440	4.108170	0.000000	-4.407314	0.606420	22.877159	1.270268	0.022170	23.863211	-14.691637	0.000000	0.144844	-0.893787	-0.571897	0.268990	-1.188737	-0.607640	0.237965	-2.173154	-0.607640	0.165542	-2.173154	-0.500410	0.134502	-1.822611	-0.464666	0.082764	-1.384476	-0.428922	1.034608	-10.110698	-3.180717	0.000000	0.000000	19.506057	-5.475259	0.896649	4.403933	-19.628396	33.989038	112.520270	47.222265	-0.369006	5.658223	-9.050338	-22.439634	17.351355	121.265846	84.762063	-10.556886	3.821720
2.457627	-2.009065	-5.068963	97.284657	0.168190	0.545891	0.970180	-6.068775	-1.107175	-15.166253	2.348719	0.040993	29.921850	2.955151	0.000000	-3.374132	0.768168	22.970430	1.489068	0.025989	23.704098	-14.796589	0.000000	0.145991	-0.835753	-0.605825	0.271121	-1.111552	-0.643689	0.239849	-2.032050	-0.643689	0.166854	-2.032050	-0.530097	0.135568	-1.704268	-0.492233	0.083419	-1.294582	-0.454369	1.042802	-9.454206	-3.369419	0.000000	0.000000	21.101678	-4.965387	-1.342782	1.528269	-20.521801	30.546856	106.868843	51.860297	-1.491895	7.416353	-8.577643	-22.388098	18.778772	114.057619	85.040855	-10.580482	5.034354
2.474576	-1.951737	-5.665233	97.316021	0.166995	0.545745	0.975488	-4.957329	-1.214499	-14.928233	2.579913	0.045028	29.670802	2.223729	0.000000	-2.256144	0.912965	22.855262	1.747068	0.030492	23.507036	-14.791248	0.000000	0.145065	-0.772864	-0.602210	0.269401	-1.027910	-0.639848	0.238328	-1.879142	-0.639848	0.165795	-1.879142	-0.526934	0.134708	-1.576025	-0.489296	0.082890	-1.197167	-0.451657	1.036186	-8.742795	-3.349311	0.000000	0.000000	22.654789	-4.525998	-3.346503	-0.976486	-20.950087	26.705085	100.993782	57.739859	-2.825768	9.448349	-7.451339	-22.091954	20.501037	106.466389	85.459840	-10.749582	5.861475
2.491525	-1.857723	-6.279669	97.255745	0.165876	0.545657	0.980869	-3.775116	-1.328007	-14.931942	2.908573	0.050764	29.479520	1.939191	0.000000	-1.113066	1.034226	22.669083	2.022060	0.035292	23.240531	-14.839331	0.000000	0.142797	-0.703614	-0.571910	0.265188	-0.935807	-0.607655	0.234601	-1.710768	-0.607655	0.163203	-1.710768	-0.500422	0.132601	-1.434811	-0.464677	0.081594	-1.089899	-0.428933	1.019985	-7.959428	-3.180794	0.000000	0.000000	24.126532	-4.060158	-4.879637	-2.950201	-20.994589	22.705765	94.998005	64.128182	-4.228134	11.476565	-5.773833	-21.597107	22.542378	98.655901	86.010876	-10.940545	6.163651
2.508475	-1.725790	-6.886091	97.109909	0.164808	0.545581	0.986074	-2.577190	-1.439232	-15.135120	3.315420	0.057865	29.349315	2.057362	0.000000	-0.000313	1.122905	22.437365	2.288630	0.039944	22.920175	-14.945545	0.000000	0.141814	-0.626021	-0.523910	0.263364	-0.832608	-0.556654	0.232987	-1.522108	-0.556654	0.162080	-1.522108	-0.458421	0.131689	-1.276582	-0.425677	0.081033	-0.969707	-0.392932	1.012966	-7.081675	-2.913828	0.000000	0.000000	25.450512	-3.452085	-5.667446	-4.261871	-20.749804	18.884332	88.995663	70.157049	-5.687545	13.155785	-3.662249	-20.922062	25.024786	90.781341	86.686669	-11.171701	5.920708
2.525424	-1.559783	-7.460410	96.892653	0.163794	0.545474	0.990857	-1.421273	-1.537356	-15.498038	3.767432	0.065754	29.287379	2.527411	0.000000	1.029761	1.170947	22.184180	2.520353	0.043988	22.575486	-15.103944	0.000000	0.144761	-0.539323	-0.473412	0.268835	-0.717299	-0.503000	0.237828	-1.311309	-0.503000	0.165447	-1.311309	-0.414236	0.134425	-1.099787	-0.384647	0.082716	-0.835411	-0.355059	1.034012	-6.100926	-2.632976	0.000000	0.000000	26.537408	-2.557027	-5.408260	-4.830604	-20.274368	15.543425	83.077306	75.197506	-7.089247	14.221945	-1.304228	-20.058295	27.948849	82.998392	87.465534	-11.366320	5.169714
2.542373	-1.383480	-7.986057	96.638173	0.162842	0.545309	0.995020	-0.359582	-1.625651	-16.011680	4.226182	0.073761	29.295281	3.309702	0.000000	1.941476	1.187408	21.923917	2.702288	0.047164	22.239677	-15.269694	0.000000	0.154409	-0.448052	-0.431199	0.286753	-0.595909	-0.458149	0.253678	-1.089393	-0.458149	0.176474	-1.089393	-0.377299	0.143384	-0.913667	-0.350349	0.088229	-0.694032	-0.323399	1.102926	-5.068451	-2.398197	0.000000	0.000000	27.303794	-1.329066	-4.158316	-4.680913	-19.608783	12.857332	77.353053	79.279154	-8.635579	14.591609	1.147679	-19.009184	31.303538	75.468146	88.277870	-11.570008	4.119391
